HIERARCHY
ROOT Hip
{
	OFFSET 0.000000 0.000000 0.000000
	CHANNELS 6 Xposition Yposition Zposition Xrotation Yrotation Zrotation
	JOINT LowerSpine
	{
		OFFSET 0.000000 5.515799 9.266301
		CHANNELS 6 Xposition Yposition Zposition Xrotation Yrotation Zrotation
		JOINT MiddleSpine
		{
			OFFSET 0.000000 -0.397602 8.456199
			CHANNELS 6 Xposition Yposition Zposition Xrotation Yrotation Zrotation
			JOINT Chest
			{
				OFFSET 0.000000 2.096198 10.463503
				CHANNELS 6 Xposition Yposition Zposition Xrotation Yrotation Zrotation
				JOINT Neck
				{
					OFFSET 0.000000 0.441296 23.579298
					CHANNELS 6 Xposition Yposition Zposition Xrotation Yrotation Zrotation
					JOINT Head
					{
						OFFSET -0.000100 -3.621802 13.315502
						CHANNELS 6 Xposition Yposition Zposition Xrotation Yrotation Zrotation
						End Site
						{
							OFFSET 0.000100 -0.555403 18.605103
						}
					}
				}
				JOINT LClavicle
				{
					OFFSET 2.142500 -7.016503 22.755198
					CHANNELS 6 Xposition Yposition Zposition Xrotation Yrotation Zrotation
					JOINT LShoulder
					{
						OFFSET 12.516600 5.281299 3.263901
						CHANNELS 6 Xposition Yposition Zposition Xrotation Yrotation Zrotation
						JOINT LForearm
						{
							OFFSET 29.541901 0.256001 -0.104698
							CHANNELS 6 Xposition Yposition Zposition Xrotation Yrotation Zrotation
							JOINT LHand
							{
								OFFSET 24.644199 0.147600 0.071499
								CHANNELS 6 Xposition Yposition Zposition Xrotation Yrotation Zrotation
								JOINT LFinger1
								{
									OFFSET 9.551399 -2.652900 0.835300
									CHANNELS 6 Xposition Yposition Zposition Xrotation Yrotation Zrotation
									JOINT LFinger11
									{
										OFFSET 3.572701 -0.629500 -0.871201
										CHANNELS 6 Xposition Yposition Zposition Xrotation Yrotation Zrotation
										JOINT LFinger12
										{
											OFFSET 2.439003 -0.429900 -0.594898
											CHANNELS 6 Xposition Yposition Zposition Xrotation Yrotation Zrotation
											End Site
											{
												OFFSET 1.735603 -0.281500 -0.518101
											}
										}
									}
								}
								JOINT LFinger2
								{
									OFFSET 9.693901 -0.231000 0.964600
									CHANNELS 6 Xposition Yposition Zposition Xrotation Yrotation Zrotation
									JOINT LFinger21
									{
										OFFSET 4.417397 0.026100 0.012299
										CHANNELS 6 Xposition Yposition Zposition Xrotation Yrotation Zrotation
										JOINT LFinger22
										{
											OFFSET 2.448601 0.014900 0.007500
											CHANNELS 6 Xposition Yposition Zposition Xrotation Yrotation Zrotation
											End Site
											{
												OFFSET 2.199303 -0.002900 -0.155300
											}
										}
									}
								}
								JOINT LFinger3
								{
									OFFSET 9.186996 2.173501 0.643799
									CHANNELS 6 Xposition Yposition Zposition Xrotation Yrotation Zrotation
									JOINT LFinger31
									{
										OFFSET 4.008400 0.251000 -0.202900
										CHANNELS 6 Xposition Yposition Zposition Xrotation Yrotation Zrotation
										JOINT LFinger32
										{
											OFFSET 2.284203 0.143500 -0.114899
											CHANNELS 6 Xposition Yposition Zposition Xrotation Yrotation Zrotation
											End Site
											{
												OFFSET 2.019600 0.095500 -0.248299
											}
										}
									}
								}
								JOINT LFinger4
								{
									OFFSET 8.525200 3.753601 -0.647800
									CHANNELS 6 Xposition Yposition Zposition Xrotation Yrotation Zrotation
									JOINT LFinger41
									{
										OFFSET 2.465500 0.680600 -0.514198
										CHANNELS 6 Xposition Yposition Zposition Xrotation Yrotation Zrotation
										JOINT LFinger42
										{
											OFFSET 1.807999 0.499400 -0.376499
											CHANNELS 6 Xposition Yposition Zposition Xrotation Yrotation Zrotation
											End Site
											{
												OFFSET 1.604698 0.368200 -0.440899
											}
										}
									}
								}
								JOINT LFinger0
								{
									OFFSET 1.975899 -1.497900 -1.495499
									CHANNELS 6 Xposition Yposition Zposition Xrotation Yrotation Zrotation
									JOINT LFinger01
									{
										OFFSET 3.678703 -2.773500 -1.208099
										CHANNELS 6 Xposition Yposition Zposition Xrotation Yrotation Zrotation
										JOINT LFinger02
										{
											OFFSET 2.422401 -1.745200 -0.866798
											CHANNELS 6 Xposition Yposition Zposition Xrotation Yrotation Zrotation
											End Site
											{
												OFFSET 1.781303 -1.219800 -0.613201
											}
										}
									}
								}
							}
						}
					}
				}
				JOINT RClavicle
				{
					OFFSET -2.142500 -7.016403 22.755198
					CHANNELS 6 Xposition Yposition Zposition Xrotation Yrotation Zrotation
					JOINT RShoulder
					{
						OFFSET -12.518800 5.282199 3.264500
						CHANNELS 6 Xposition Yposition Zposition Xrotation Yrotation Zrotation
						JOINT RForearm
						{
							OFFSET -29.541901 0.256001 -0.104698
							CHANNELS 6 Xposition Yposition Zposition Xrotation Yrotation Zrotation
							JOINT RHand
							{
								OFFSET -24.644196 0.147600 0.071499
								CHANNELS 6 Xposition Yposition Zposition Xrotation Yrotation Zrotation
								JOINT RFinger1
								{
									OFFSET -9.551399 -2.652900 0.835400
									CHANNELS 6 Xposition Yposition Zposition Xrotation Yrotation Zrotation
									JOINT RFinger11
									{
										OFFSET -3.572701 -0.629500 -0.871201
										CHANNELS 6 Xposition Yposition Zposition Xrotation Yrotation Zrotation
										JOINT RFinger12
										{
											OFFSET -2.439003 -0.429900 -0.595001
											CHANNELS 6 Xposition Yposition Zposition Xrotation Yrotation Zrotation
											End Site
											{
												OFFSET -1.735603 -0.281500 -0.518101
											}
										}
									}
								}
								JOINT RFinger2
								{
									OFFSET -9.693901 -0.231000 0.964699
									CHANNELS 6 Xposition Yposition Zposition Xrotation Yrotation Zrotation
									JOINT RFinger21
									{
										OFFSET -4.417503 0.026100 0.012299
										CHANNELS 6 Xposition Yposition Zposition Xrotation Yrotation Zrotation
										JOINT RFinger22
										{
											OFFSET -2.448601 0.015000 0.007500
											CHANNELS 6 Xposition Yposition Zposition Xrotation Yrotation Zrotation
											End Site
											{
												OFFSET -2.199303 -0.002900 -0.155300
											}
										}
									}
								}
								JOINT RFinger3
								{
									OFFSET -9.186996 2.173501 0.643799
									CHANNELS 6 Xposition Yposition Zposition Xrotation Yrotation Zrotation
									JOINT RFinger31
									{
										OFFSET -4.008400 0.251000 -0.202900
										CHANNELS 6 Xposition Yposition Zposition Xrotation Yrotation Zrotation
										JOINT RFinger32
										{
											OFFSET -2.284203 0.143500 -0.114899
											CHANNELS 6 Xposition Yposition Zposition Xrotation Yrotation Zrotation
											End Site
											{
												OFFSET -2.019600 0.095500 -0.248299
											}
										}
									}
								}
								JOINT RFinger4
								{
									OFFSET -8.525200 3.753600 -0.647800
									CHANNELS 6 Xposition Yposition Zposition Xrotation Yrotation Zrotation
									JOINT RFinger41
									{
										OFFSET -2.465500 0.680600 -0.514099
										CHANNELS 6 Xposition Yposition Zposition Xrotation Yrotation Zrotation
										JOINT RFinger42
										{
											OFFSET -1.807999 0.499400 -0.376400
											CHANNELS 6 Xposition Yposition Zposition Xrotation Yrotation Zrotation
											End Site
											{
												OFFSET -1.604698 0.368200 -0.440899
											}
										}
									}
								}
								JOINT RFinger0
								{
									OFFSET -1.975899 -1.497799 -1.495399
									CHANNELS 6 Xposition Yposition Zposition Xrotation Yrotation Zrotation
									JOINT RFinger01
									{
										OFFSET -3.678703 -2.773600 -1.208302
										CHANNELS 6 Xposition Yposition Zposition Xrotation Yrotation Zrotation
										JOINT RFinger02
										{
											OFFSET -2.422302 -1.745200 -0.866699
											CHANNELS 6 Xposition Yposition Zposition Xrotation Yrotation Zrotation
											End Site
											{
												OFFSET -1.781303 -1.219800 -0.613201
											}
										}
									}
								}
							}
						}
					}
				}
			}
		}
	}
	JOINT RThigh
	{
		OFFSET -10.956100 0.898699 4.188600
		CHANNELS 6 Xposition Yposition Zposition Xrotation Yrotation Zrotation
		JOINT RShin
		{
			OFFSET -0.793200 0.000007 -43.115398
			CHANNELS 6 Xposition Yposition Zposition Xrotation Yrotation Zrotation
			JOINT RFoot
			{
				OFFSET 0.000000 0.000007 -42.336796
				CHANNELS 6 Xposition Yposition Zposition Xrotation Yrotation Zrotation
				JOINT RToe
				{
					OFFSET 0.000000 -9.730399 -4.653198
					CHANNELS 6 Xposition Yposition Zposition Xrotation Yrotation Zrotation
					End Site
					{
						OFFSET 0.000000 -6.527801 0.000000
					}
				}
			}
		}
	}
	JOINT LThigh
	{
		OFFSET 10.955900 0.898799 4.188900
		CHANNELS 6 Xposition Yposition Zposition Xrotation Yrotation Zrotation
		JOINT LShin
		{
			OFFSET 0.793300 0.000007 -43.115700
			CHANNELS 6 Xposition Yposition Zposition Xrotation Yrotation Zrotation
			JOINT LFoot
			{
				OFFSET 0.000000 0.000007 -42.336796
				CHANNELS 6 Xposition Yposition Zposition Xrotation Yrotation Zrotation
				JOINT LToe
				{
					OFFSET 0.000000 -9.730499 -4.653198
					CHANNELS 6 Xposition Yposition Zposition Xrotation Yrotation Zrotation
					End Site
					{
						OFFSET 0.000000 -6.527801 0.000000
					}
				}
			}
		}
	}
}
MOTION
Frames: 4
Frame Time: 0.041667
-37.004902 105.560883 85.883026 -7.098513 10.611523 -172.976644 -0.000002 5.515782 9.266306 0.000000 -0.000001 0.000000 0.000001 -0.397595 8.456195 -0.903030 4.438884 1.332105 0.000004 2.096202 10.463512 -3.472552 14.699855 4.794590 0.000006 0.441304 23.579306 -0.000002 0.000001 0.000002 -0.000098 -3.621798 13.315479 0.000000 -0.000000 0.000000 2.142502 -7.016494 22.755211 -0.000006 5.606842 -0.000000 12.516588 5.281313 3.263907 23.490156 7.870580 -56.944387 29.541901 0.256013 -0.104715 0.121609 -0.025347 -40.579281 24.644176 0.147608 0.071486 -0.000013 2.553862 -35.001933 9.551393 -2.652896 0.835308 -0.000000 0.000001 0.000001 3.572708 -0.629505 -0.871223 0.000001 0.000000 0.000004 2.439004 -0.429898 -0.594890 -0.000004 0.000001 0.000002 9.693910 -0.230993 0.964612 -0.000001 0.000001 -0.000001 4.417412 0.026087 0.012299 0.000000 -0.000000 -0.000000 2.448601 0.014906 0.007473 -0.000000 0.000001 0.000002 9.186988 2.173502 0.643812 -0.000001 -0.000000 0.000002 4.008401 0.250992 -0.202906 -0.000001 0.000001 0.000000 2.284194 0.143496 -0.114877 0.000002 -0.000001 -0.000002 8.525216 3.753611 -0.647794 -0.000001 0.000001 0.000001 2.465490 0.680601 -0.514187 0.000001 -0.000001 0.000006 1.807998 0.499406 -0.376499 0.000003 -0.000001 -0.000001 1.975894 -1.497894 -1.495490 0.000003 0.000003 -0.000001 3.678688 -2.773518 -1.208118 0.000006 0.000000 0.000002 2.422410 -1.745195 -0.866795 0.000002 0.000001 -0.000006 -2.142491 -7.016387 22.755203 -0.000008 -15.477434 -0.000003 -12.518805 5.282189 3.264506 -68.238630 -44.448494 -74.316734 -29.541889 0.256004 -0.104694 0.020137 0.002006 12.662554 -24.644196 0.147607 0.071509 0.000002 -0.000000 0.000001 -9.551408 -2.652897 0.835395 0.000003 -0.000001 -0.000001 -3.572691 -0.629503 -0.871206 -0.000000 0.000002 0.000000 -2.438993 -0.429889 -0.595001 -0.000001 0.000002 -0.000001 -9.693916 -0.230988 0.964701 0.000002 -0.000000 0.000000 -4.417511 0.026097 0.012290 -0.000000 0.000000 0.000001 -2.448609 0.014994 0.007493 -0.000001 -0.000000 0.000001 -9.186996 2.173501 0.643798 0.000002 0.000000 -0.000000 -4.008393 0.251012 -0.202897 0.000003 -0.000001 -0.000001 -2.284211 0.143506 -0.114911 0.000001 -0.000001 0.000001 -8.525200 3.753592 -0.647803 0.000005 0.000000 -0.000000 -2.465507 0.680587 -0.514088 0.000001 0.000001 0.000003 -1.807989 0.499406 -0.376403 0.000005 0.000003 0.000001 -1.975905 -1.497794 -1.495400 0.000004 0.000002 0.000004 -3.678734 -2.773590 -1.208285 -0.000003 -0.000000 -0.000002 -2.422289 -1.745198 -0.866700 -0.000003 -0.000003 0.000003 -10.956100 0.898691 4.188607 6.930115 24.783661 -1.295405 -0.793197 0.000002 -43.115406 46.017044 -0.000001 0.000007 -0.000001 0.000014 -42.336784 -0.586580 0.036086 -0.083032 -0.000004 -9.730405 -4.653180 -0.000004 -0.000001 0.000003 10.955902 0.898785 4.188912 -4.184626 13.420184 0.477893 0.793297 0.000010 -43.115707 5.351184 -0.000001 0.000000 -0.000001 0.000041 -42.336788 -24.432813 15.414735 2.869053 -0.000002 -9.730484 -4.653191 0.000050 0.000003 0.000000 
0.540800 -2.847616 88.016205 5.050407 -1.144781 -0.000001 0.000000 5.515799 9.266293 -0.000000 0.000000 -0.000000 0.000000 -0.397599 8.456186 0.022394 0.818742 1.519705 0.000000 2.096199 10.463495 -0.012027 2.730659 5.070970 -0.000000 0.441294 23.579302 -0.000002 0.000000 -0.000000 -0.000098 -3.621803 13.315502 -0.000000 -0.000000 0.000000 2.142500 -7.016505 22.755199 -0.000001 14.409611 -0.000002 12.516586 5.281306 3.263906 59.065973 38.702075 -61.627772 29.541901 0.256002 -0.104699 -0.000001 -0.000000 -1.288518 24.644192 0.147600 0.071502 -0.000004 -0.000000 -0.000001 9.551406 -2.652903 0.835298 0.000001 -0.000001 -0.000000 3.572695 -0.629503 -0.871199 0.000005 0.000002 -0.000001 2.438989 -0.429895 -0.594903 -0.000003 0.000001 0.000001 9.693892 -0.231001 0.964597 0.000001 -0.000001 -0.000000 4.417388 0.026101 0.012303 -0.000001 -0.000001 0.000001 2.448586 0.014901 0.007497 0.000004 0.000000 -0.000000 9.186996 2.173500 0.643798 0.000003 -0.000001 0.000000 4.008400 0.250999 -0.202907 0.000000 0.000001 0.000001 2.284218 0.143500 -0.114897 -0.000002 0.000001 0.000000 8.525214 3.753598 -0.647810 -0.000001 -0.000001 -0.000000 2.465500 0.680597 -0.514197 0.000005 0.000001 0.000003 1.807989 0.499402 -0.376505 -0.000005 -0.000002 -0.000001 1.975898 -1.497899 -1.495503 0.000004 -0.000001 0.000002 3.678708 -2.773495 -1.208094 0.000005 0.000005 -0.000000 2.422412 -1.745201 -0.866803 -0.000000 0.000004 -0.000012 -2.142497 -7.016401 22.755201 -0.000000 -14.798249 -0.000002 -12.518795 5.282205 3.264486 -117.288446 -146.357034 -110.295650 -29.541904 0.256000 -0.104695 0.000000 -0.000000 -0.049766 -24.644203 0.147599 0.071494 -0.000003 -0.000000 -0.000000 -9.551416 -2.652902 0.835392 0.000006 -0.000002 -0.000001 -3.572690 -0.629500 -0.871201 0.000004 0.000003 0.000000 -2.438999 -0.429899 -0.595001 0.000005 0.000004 -0.000001 -9.693926 -0.231000 0.964697 0.000005 -0.000002 -0.000000 -4.417488 0.026097 0.012299 0.000002 0.000000 0.000001 -2.448601 0.014999 0.007499 0.000002 0.000000 0.000000 -9.187020 2.173499 0.643790 0.000003 -0.000001 -0.000000 -4.008392 0.251002 -0.202893 -0.000003 0.000000 -0.000000 -2.284201 0.143498 -0.114898 0.000005 0.000002 0.000000 -8.525216 3.753589 -0.647810 0.000010 -0.000001 0.000003 -2.465499 0.680597 -0.514097 -0.000000 0.000002 0.000003 -1.807996 0.499397 -0.376392 0.000005 0.000003 0.000002 -1.975906 -1.497803 -1.495405 0.000008 0.000001 0.000003 -3.678705 -2.773604 -1.208304 -0.000010 -0.000003 -0.000001 -2.422297 -1.745206 -0.866707 0.000002 -0.000003 0.000003 -10.956100 0.898700 4.188588 -25.233144 2.177629 0.139538 -0.793198 0.000004 -43.115391 19.569016 -0.000002 0.000007 0.000002 0.000009 -42.336796 -0.013930 0.231491 -0.484135 0.068255 -9.725399 -3.078666 0.000001 -0.000000 0.000002 10.955902 0.898799 4.188893 -10.242425 4.087979 -0.281703 0.793298 0.000008 -43.115700 1.776636 -0.000001 0.000000 -0.000004 0.000014 -42.336784 -0.016338 0.125928 -0.263389 -0.000001 -9.730498 -4.653198 -0.000002 0.000000 0.000000 
0.663500 -2.880522 88.022507 4.989179 -1.134499 0.173522 0.000000 5.515799 9.266292 -0.000000 0.000000 -0.000000 0.000000 -0.397601 8.456207 0.029335 0.809795 1.482441 0.000000 2.096200 10.463508 0.008485 2.708515 4.977114 -0.000000 0.441299 23.579306 -0.000002 -0.000001 0.000001 -0.000100 -3.621793 13.315479 0.000000 -0.000000 -0.000000 2.142499 -7.016499 22.755199 -0.000003 14.515175 -0.000000 12.516581 5.281308 3.263918 59.382409 38.292339 -61.845888 29.541889 0.255997 -0.104695 0.000002 -0.000001 -1.295887 24.644201 0.147598 0.071502 0.000004 0.000002 -0.000000 9.551399 -2.652900 0.835293 0.000002 -0.000000 -0.000002 3.572702 -0.629498 -0.871195 0.000001 0.000001 -0.000001 2.439003 -0.429894 -0.594908 -0.000006 -0.000000 0.000001 9.693893 -0.230999 0.964597 -0.000000 -0.000000 -0.000000 4.417388 0.026102 0.012299 -0.000002 -0.000001 0.000000 2.448609 0.014902 0.007496 0.000002 0.000001 0.000000 9.186990 2.173501 0.643799 0.000002 0.000001 -0.000001 4.008385 0.250999 -0.202899 -0.000004 -0.000000 0.000000 2.284211 0.143505 -0.114895 -0.000004 0.000001 0.000000 8.525215 3.753603 -0.647808 0.000003 -0.000000 -0.000000 2.465491 0.680591 -0.514198 0.000000 -0.000001 0.000004 1.808004 0.499402 -0.376505 -0.000003 -0.000003 0.000000 1.975907 -1.497899 -1.495494 0.000003 0.000001 0.000001 3.678713 -2.773497 -1.208099 -0.000003 0.000003 -0.000002 2.422397 -1.745197 -0.866793 -0.000001 0.000003 -0.000009 -2.142498 -7.016398 22.755201 0.000003 -14.877177 -0.000003 -12.518784 5.282211 3.264503 -117.186321 -146.867399 -110.546912 -29.541893 0.256000 -0.104695 -0.000002 0.000001 0.590240 -24.644188 0.147600 0.071496 0.000003 0.000000 0.000001 -9.551377 -2.652903 0.835399 -0.000002 -0.000001 -0.000001 -3.572697 -0.629495 -0.871192 -0.000002 0.000003 0.000000 -2.438977 -0.429897 -0.594994 0.000002 0.000003 -0.000000 -9.693886 -0.231001 0.964706 -0.000002 -0.000000 0.000000 -4.417496 0.026100 0.012297 -0.000000 -0.000000 0.000000 -2.448601 0.015000 0.007501 -0.000002 -0.000000 0.000000 -9.186989 2.173500 0.643799 0.000001 0.000000 0.000000 -4.008393 0.250999 -0.202899 0.000000 -0.000001 -0.000000 -2.284211 0.143500 -0.114902 0.000002 -0.000001 -0.000001 -8.525186 3.753591 -0.647800 0.000002 -0.000000 0.000001 -2.465491 0.680597 -0.514098 -0.000000 0.000003 0.000004 -1.807988 0.499396 -0.376393 0.000002 0.000003 -0.000000 -1.975884 -1.497801 -1.495402 0.000004 -0.000001 0.000001 -3.678715 -2.773592 -1.208300 -0.000003 -0.000005 0.000002 -2.422305 -1.745201 -0.866698 -0.000000 -0.000003 -0.000001 -10.956101 0.898700 4.188592 -25.010990 2.252664 0.300779 -0.793198 0.000002 -43.115402 19.368506 -0.000001 0.000007 0.000005 0.000007 -42.336796 -0.112941 0.131709 -0.274752 0.067832 -9.730026 -3.077498 0.000003 -0.000000 0.000001 10.955901 0.898800 4.188890 -10.336214 4.190844 -0.260712 0.793299 0.000007 -43.115707 2.103218 -0.000000 0.000000 -0.000000 0.000018 -42.336792 -0.243398 0.103465 -0.215575 -0.000001 -9.730501 -4.653198 0.000001 0.000000 0.000000 
0.791600 -2.904121 88.026917 4.933604 -1.120136 0.351480 -0.000000 5.515795 9.266288 -0.000003 0.000001 0.000001 -0.000000 -0.397600 8.456195 0.032343 0.805114 1.461852 0.000000 2.096199 10.463508 0.026658 2.686320 4.879176 0.000001 0.441298 23.579279 -0.000003 -0.000000 0.000000 -0.000100 -3.621811 13.315517 0.000001 0.000000 0.000000 2.142500 -7.016499 22.755190 -0.000002 14.603368 0.000002 12.516590 5.281300 3.263891 59.628562 37.838599 -62.056818 29.541903 0.256000 -0.104702 -0.000002 -0.000000 -1.106825 24.644192 0.147603 0.071495 -0.000004 -0.000000 0.000000 9.551391 -2.652901 0.835311 0.000006 -0.000001 -0.000000 3.572685 -0.629499 -0.871203 -0.000000 0.000000 0.000001 2.439013 -0.429898 -0.594901 -0.000002 0.000002 0.000000 9.693900 -0.231001 0.964605 0.000004 -0.000001 -0.000000 4.417388 0.026098 0.012296 0.000000 -0.000001 -0.000000 2.448608 0.014898 0.007496 -0.000001 0.000000 0.000000 9.186981 2.173499 0.643808 -0.000001 0.000000 -0.000000 4.008392 0.251000 -0.202903 -0.000002 -0.000001 0.000001 2.284210 0.143503 -0.114899 -0.000004 0.000000 0.000001 8.525208 3.753599 -0.647793 0.000004 0.000000 0.000002 2.465492 0.680598 -0.514203 0.000001 0.000001 0.000005 1.808011 0.499397 -0.376515 -0.000004 -0.000003 -0.000000 1.975893 -1.497901 -1.495493 0.000006 0.000002 -0.000002 3.678715 -2.773497 -1.208095 0.000004 -0.000003 0.000005 2.422393 -1.745201 -0.866799 0.000002 -0.000000 -0.000005 -2.142496 -7.016400 22.755186 -0.000001 -14.945702 -0.000000 -12.518782 5.282214 3.264486 -117.113388 -147.282251 -110.957017 -29.541912 0.256003 -0.104692 0.000002 -0.000001 1.525770 -24.644209 0.147602 0.071495 0.000000 0.000001 0.000001 -9.551408 -2.652901 0.835399 0.000001 -0.000001 -0.000002 -3.572684 -0.629499 -0.871200 0.000001 0.000002 0.000001 -2.438987 -0.429897 -0.594998 -0.000001 0.000001 0.000001 -9.693909 -0.231000 0.964707 0.000001 -0.000000 -0.000001 -4.417488 0.026099 0.012294 0.000002 0.000001 -0.000000 -2.448602 0.015000 0.007508 -0.000004 -0.000001 0.000000 -9.187005 2.173500 0.643797 -0.000002 -0.000001 -0.000001 -4.008400 0.251004 -0.202903 -0.000003 -0.000000 0.000000 -2.284196 0.143500 -0.114898 0.000002 -0.000001 -0.000001 -8.525215 3.753592 -0.647800 0.000004 0.000000 0.000001 -2.465492 0.680595 -0.514094 0.000003 0.000001 0.000004 -1.807996 0.499392 -0.376396 0.000007 0.000003 0.000002 -1.975906 -1.497802 -1.495400 -0.000001 0.000001 -0.000000 -3.678698 -2.773595 -1.208303 -0.000011 -0.000003 -0.000001 -2.422297 -1.745204 -0.866703 -0.000001 -0.000003 -0.000003 -10.956100 0.898697 4.188589 -24.769799 2.316684 0.463538 -0.793199 0.000007 -43.115391 19.113296 -0.000002 0.000007 0.000005 0.000010 -42.336807 -0.228005 0.134018 -0.278430 0.064750 -9.735692 -3.076705 0.000000 -0.000000 0.000002 10.955902 0.898796 4.188884 -10.364650 4.291584 -0.243577 0.793300 0.000005 -43.115692 2.271434 -0.000001 -0.000000 -0.000001 0.000018 -42.336800 -0.475161 0.069074 -0.142661 -0.000001 -9.730499 -4.653198 0.000001 -0.000000 -0.000000 
